PathFileType	4	(X/Y/Z)	C:\Users\willi\Desktop\Data_PaperCallum_v2\17_Akif\Gait03\marker_experimental_temp.trc
DataRate	CameraRate	NumFrames	NumMarkers	Units	OrigDataRate	OrigDataStartFrame	OrigNumFrames
100.000000	100.000000	4	27	mm	100.000000	0	158
Frame#	Time	C7			T10			Clav			Sternum			Right_Back			PCL_CRAN			PCL_RECHTS			PCL_LINKS			RCL_UL_CRAN			RCL_UL_POST			RCL_UL_ANT			RCL_LL_CRAN			RCL_LL_POST			RCL_LL_ANT			Right_Heel			Right_Toe			Right_M5			LCL_UL_CRAN			LCL_UL_POST			LCL_UL_ANT			LCL_LL_CRAN			LCL_LL_POST			LCL_LL_ANT			Left_Heel			Left_Toe			Left_M5			*26			
		X1	Y1	Z1	X2	Y2	Z2	X3	Y3	Z3	X4	Y4	Z4	X5	Y5	Z5	X6	Y6	Z6	X7	Y7	Z7	X8	Y8	Z8	X9	Y9	Z9	X10	Y10	Z10	X11	Y11	Z11	X12	Y12	Z12	X13	Y13	Z13	X14	Y14	Z14	X15	Y15	Z15	X16	Y16	Z16	X17	Y17	Z17	X18	Y18	Z18	X19	Y19	Z19	X20	Y20	Z20	X21	Y21	Z21	X22	Y22	Z22	X23	Y23	Z23	X24	Y24	Z24	X25	Y25	Z25	X26	Y26	Z26	X27	Y27	Z27	

1	0	1445.278198242188	1392.821533203125	216.9900970458984	1491.774169921875	1177.391479492188	214.2124786376952	1306.414672851563	1313.586303710938	216.154312133789	1252.086303710938	1148.707275390625	229.8142089843749	1487.040405273438	1332.098876953125	108.0939102172851	1485.156616210938	1003.663391113281	197.134780883789	1492.787841796875	943.8467407226564	173.9360046386718	1498.03125	944.5213012695314	224.3783264160155	1308.254760742188	712.0821533203126	34.25231552124016	1307.458374023438	647.1803588867189	37.75961685180656	1261.230590820313	666.2491455078126	35.43651962280266	1207.193237304688	377.8851623535157	72.89622497558587	1209.064453125	311.5057067871094	74.08496093749993	1161.441162109375	330.5502624511719	72.29226684570305	1115.527465820313	33.21992111206062	161.8836975097656	942.8280029296875	104.9901962280274	116.8031768798828	980.9296264648438	69.77607727050787	73.19727325439447	1417.613525390625	742.0670166015626	380.2191772460936	1440.408447265625	681.6350708007814	367.2780456542968	1391.289306640625	682.2323608398439	376.6940612792968	1535.559326171875	378.194549560547	337.8734436035155	1574.642822265625	325.4224243164064	336.5626220703124	1525.8974609375	313.3682556152345	334.5794067382811	1679.841918945313	49.42103576660166	245.7707519531249	1475.001831054688	33.17414093017587	261.7667846679686	1525.930297851563	14.39975070953379	322.6432495117186	nan	nan	nan	
2	0.01	1430.942504882813	1390.0126953125	216.2330017089843	1476.536254882813	1174.258911132813	213.7409210205077	1291.606323242188	1311.098022460938	215.1596069335937	1237.175415039063	1146.266723632813	229.2167663574218	1472.837158203125	1328.778686523438	107.8357543945312	1469.591186523438	1000.716857910156	196.6495208740234	1477.218872070313	940.9837646484376	173.3372650146484	1482.430419921875	941.5363159179689	223.7977905273437	1291.310302734375	709.9765625000001	34.34795379638664	1291.600952148438	645.0018310546876	36.93248748779289	1245.320434570313	663.9740600585939	34.01507949829094	1188.912353515625	376.7731018066407	75.35563659667962	1188.167602539063	311.4081726074219	73.82781982421868	1141.564208984375	331.0617980957032	74.47612762451165	1093.520874023438	31.14463806152351	164.3867645263671	921.3899536132813	108.7549591064454	124.2914962768554	957.15087890625	71.9264755249024	79.58046722412104	1406.432250976563	740.6782836914064	380.8009033203124	1429.442016601563	680.5106811523439	368.3901367187499	1380.420043945313	680.6197509765626	377.8025817871093	1528.063720703125	378.1347961425782	338.4497680664061	1568.025146484375	326.2170410156251	337.6311950683593	1519.47607421875	313.3313598632814	335.6989746093749	1679.425659179688	52.16816711425791	246.9959564208983	1475.072998046875	33.20818710327158	261.8216552734374	1525.782592773438	14.52478694915781	322.7968139648436	nan	nan	nan	
3	0.02	1416.567138671875	1387.539916992188	215.4389190673827	1461.249267578125	1171.462890625	213.2565917968749	1276.77685546875	1308.966552734375	214.185806274414	1222.14453125	1144.22119140625	228.6232452392577	1458.552612304688	1325.769409179688	107.5126113891601	1453.914306640625	998.1495971679689	196.1952667236327	1461.546752929688	938.5163574218751	172.7286376953124	1466.717651367188	938.9124755859376	223.2045440673827	1274.239624023438	708.2311401367189	34.62309646606437	1274.910888671875	643.2402954101564	36.81663131713859	1228.731079101563	662.3829345703126	33.45190811157219	1171.443237304688	375.4449462890626	77.68766021728509	1169.162963867188	310.7922058105469	74.19501495361321	1123.235107421875	330.6669616699219	76.84617614746087	1075.172729492188	28.89459800720222	167.0766296386718	903.0818481445313	110.1679382324219	131.7944793701171	936.8763427734375	72.25270843505865	85.9825820922851	1394.753662109375	739.3830566406251	381.230255126953	1418.038452148438	679.4162597656251	369.2635192871093	1369.113037109375	679.0848388671876	378.7658996582031	1520.15625	378.215057373047	339.0514526367186	1561.076416015625	327.195037841797	338.6452636718749	1512.749877929688	313.3743896484376	336.7289123535155	1678.888061523438	55.45951080322276	248.2567443847655	1475.032104492188	33.25584030151376	261.9447326660155	1525.613525390625	14.59814262390146	322.9484863281249	nan	nan	nan	
4	0.03	1402.152221679688	1385.4033203125	214.6079864501952	1445.9140625	1169.00390625	212.7594299316405	1261.926513671875	1307.191772460938	213.2331237792968	1206.994750976563	1142.570556640625	228.033950805664	1444.186889648438	1323.07177734375	107.1244430541991	1438.127685546875	995.9616699218751	195.7717285156249	1445.772827148438	936.4443359375001	172.1101074218749	1450.894409179688	936.6499023437501	222.5985717773437	1257.052612304688	706.8434448242189	35.06848144531242	1257.454345703125	641.8856201171876	37.37400054931633	1211.512084960938	661.4398193359376	33.72094345092766	1154.771850585938	373.9144287109376	79.88435363769524	1152.019897460938	309.6679382324219	75.19372558593743	1106.418701171875	329.3967590332032	79.38758087158196	1060.408813476563	26.52676963806159	169.9191284179687	887.8218994140625	109.2683486938477	139.2775726318359	920.0404663085938	70.79698181152349	92.37248992919916	1382.574584960938	738.1823730468751	381.5080871582031	1406.1923828125	678.3549804687501	369.8981018066405	1357.362426757813	677.6305541992189	379.5820617675781	1511.82861328125	378.4387207031251	339.6846313476561	1553.791015625	328.3640136718751	339.6062927246093	1505.718139648438	313.5022277832032	337.6619567871093	1678.217041015625	59.30593490600596	249.5444030761718	1474.880004882813	33.31268310546884	262.1386413574218	1525.433715820313	14.61614513397226	323.0924377441405	nan	nan	nan	
